<svg width="28" height="25" viewBox="0 0 28 25" fill="none" xmlns="http://www.w3.org/2000/svg">
<g clip-path="url(#clip0_28_271)">
<path fill-rule="evenodd" clip-rule="evenodd" d="M4.20164 6.86854L3.06086 5.74682H0.462656C0.336875 5.74682 0.220937 5.69301 0.136719 5.6078C0.0934553 5.56395 0.0590976 5.51175 0.035631 5.45422C0.0121644 5.39668 5.41219e-05 5.33494 0 5.27258L0 1.63276C0 1.50215 0.0530469 1.38386 0.136172 1.2981L0.147656 1.28744C0.230781 1.20728 0.342891 1.15795 0.462656 1.15795H5.12094C5.24672 1.15795 5.3632 1.21233 5.44688 1.2981C5.53055 1.38386 5.58359 1.50327 5.58359 1.63276V5.27258C5.58359 5.40207 5.53164 5.52091 5.44742 5.60724L5.43594 5.61789C5.35077 5.7004 5.23812 5.74651 5.12094 5.74682H4.51719V6.74577C4.51719 6.84836 4.43625 6.93132 4.33672 6.93132C4.28258 6.93132 4.23445 6.90722 4.20164 6.86854ZM22.0276 6.30067L22.9649 5.37965C23.001 5.34377 23.048 5.32639 23.0951 5.32639L25.877 5.32527C25.906 5.32527 25.9334 5.31294 25.952 5.29388C25.9705 5.27426 25.9831 5.24623 25.9831 5.21652V1.93043C25.9831 1.90128 25.9705 1.87325 25.9514 1.85419C25.9323 1.83457 25.9055 1.82167 25.877 1.82167H21.023C20.9951 1.82167 20.9677 1.83457 20.9486 1.85419C20.9295 1.87381 20.9169 1.90128 20.9169 1.93043V5.21652C20.9169 5.24567 20.9289 5.2737 20.9486 5.29332C20.9672 5.31238 20.9945 5.32527 21.023 5.32527H21.84C21.9434 5.32527 22.0276 5.41216 22.0276 5.51811V6.30067ZM13.9803 22.04C14.5939 22.04 15.0916 22.5501 15.0916 23.1791C15.0916 23.808 14.5939 24.3176 13.9803 24.3176C13.3667 24.3176 12.8696 23.808 12.8696 23.1791C12.8696 22.5501 13.3667 22.04 13.9803 22.04ZM11.1278 15.5474C12.5727 17.2117 15.8446 16.9185 17.0543 15.5558C16.7732 15.234 16.4741 14.7833 16.2165 14.3965C16.1585 14.3096 16.1033 14.2261 16.0502 14.1476C15.5045 14.5243 14.8548 14.7558 14.0399 14.7536C13.1327 14.7514 12.4266 14.4324 11.8398 13.9447C11.6747 14.4486 11.4335 15.1426 11.2005 15.4734C11.1798 15.5031 11.1552 15.5278 11.1278 15.5474ZM16.7519 18.4971H5.0493C4.60414 18.4971 4.24266 18.9243 4.30938 19.4462L5.01047 24.9998H3.2282C3.2293 22.0338 2.20281 18.3951 5.23031 16.6646C6.35797 16.0199 9.5293 15.8013 10.797 14.9498C10.9911 14.577 11.206 13.9077 11.334 13.5086C11.3488 13.4637 11.3252 13.5377 11.3471 13.4699C10.8812 12.957 10.5005 12.351 10.1347 11.7551L9.0907 10.0537C8.70898 9.46961 8.51047 8.93594 8.49789 8.49869C8.49242 8.2924 8.52633 8.10517 8.6007 7.94148C8.67836 7.76938 8.79813 7.62531 8.96 7.51376C9.03492 7.46163 9.11969 7.4179 9.21266 7.38146C9.14484 6.45876 9.11969 5.295 9.16344 4.32184C9.18586 4.09032 9.22906 3.85937 9.29195 3.62841C9.67422 2.22809 10.8484 1.21962 12.1893 0.744807C12.8395 0.514411 12.5885 -0.0349535 13.2464 0.00148394C14.805 0.0889338 17.2096 1.11815 18.1338 2.21071C19.4288 3.74109 19.0947 5.62518 19.0509 7.4919C19.3408 7.58215 19.5262 7.7705 19.6022 8.0749C19.6864 8.41236 19.5951 8.88829 19.3156 9.53688H19.3151C19.3096 9.54865 19.3041 9.56042 19.2976 9.57163L18.1076 11.5807C17.6487 12.3549 17.1828 13.1313 16.5616 13.7277L16.5309 13.7563C16.5905 13.8443 16.6551 13.9408 16.7223 14.0422C16.9291 14.3528 17.1642 14.7065 17.3824 14.9829C18.6752 15.8069 21.7875 16.0289 22.8993 16.6646C25.6829 18.255 24.7313 22.1829 24.8932 24.9998H23.1191L23.8202 19.4462C23.8864 18.9237 23.5255 18.4971 23.0803 18.4971H16.7519ZM9.81477 7.87533C9.58344 7.88486 9.40844 7.93419 9.28813 8.0166C9.21977 8.06368 9.16945 8.12367 9.13719 8.19486C9.10164 8.27446 9.08523 8.37088 9.08797 8.48187C9.09727 8.80757 9.26352 9.23305 9.58562 9.72355L9.59 9.73084L10.6345 11.4327C11.0534 12.1155 11.492 12.8112 12.0378 13.3224C12.5623 13.8141 13.1988 14.1471 14.0399 14.1493C14.9516 14.1515 15.6182 13.8051 16.1591 13.286C16.7218 12.7467 17.1659 12.0062 17.6034 11.2679L18.7797 9.28182C18.999 8.76889 19.0788 8.42582 19.0285 8.22457C18.999 8.10461 18.8694 8.04631 18.6495 8.03454C18.603 8.03229 18.5549 8.03173 18.5063 8.03285C18.4538 8.03454 18.3991 8.03846 18.3422 8.0435C18.3105 8.04687 18.2804 8.04463 18.2509 8.0379C18.1464 8.0435 18.0387 8.03622 17.9287 8.0194L18.3318 6.19192C15.3426 6.67514 13.107 4.3992 9.94711 5.7373L10.1746 7.89103C10.0472 7.89719 9.92633 7.89271 9.81477 7.87533ZM23.4653 9.74765C23.689 9.74765 23.8705 9.93377 23.8705 10.1636C23.8705 10.3929 23.689 10.5795 23.4653 10.5795C23.2411 10.5795 23.059 10.3929 23.059 10.1636C23.059 9.93377 23.2411 9.74765 23.4653 9.74765ZM25.1437 11.5331L25.9558 10.0941L27.038 11.5252V12.3297H22.394V12.0527L23.1317 12.0354L23.4697 11.1861L23.6387 11.7926H24.1462L24.5859 10.6311L25.1437 11.5331ZM22.1102 8.43535H27.3219C27.5078 8.43535 27.6779 8.51383 27.8009 8.6394L27.8119 8.65229C27.9284 8.7773 28 8.94715 28 9.13102V12.5584C28 12.7484 27.9234 12.9228 27.8004 13.0489C27.6763 13.1756 27.5078 13.2541 27.3219 13.2541H22.1102C21.9248 13.2541 21.7547 13.175 21.6316 13.0489C21.5684 12.9847 21.5183 12.9083 21.484 12.8241C21.4497 12.7399 21.4321 12.6496 21.432 12.5584V9.13102C21.432 8.93987 21.5086 8.76553 21.6316 8.6394C21.6944 8.57479 21.7689 8.52351 21.8511 8.48849C21.9332 8.45348 22.0212 8.43542 22.1102 8.43535ZM27.3219 8.87428H22.1102C22.0418 8.87428 21.9789 8.90343 21.9335 8.94939C21.8887 8.99592 21.8602 9.06039 21.8602 9.13102V12.5584C21.8602 12.629 21.8887 12.6935 21.9335 12.7394C21.9565 12.7635 21.984 12.7826 22.0144 12.7956C22.0447 12.8086 22.0773 12.8152 22.1102 12.8151H27.3219C27.3902 12.8151 27.4531 12.7865 27.498 12.74C27.5214 12.7163 27.54 12.688 27.5527 12.6568C27.5654 12.6256 27.5719 12.5922 27.5718 12.5584V9.13102C27.5718 9.06375 27.5461 9.00209 27.5056 8.95612L27.4985 8.94939C27.4515 8.90155 27.3881 8.87457 27.3219 8.87428ZM21.9149 4.33361C21.811 4.33361 21.7262 4.24728 21.7262 4.14078C21.7262 4.03427 21.811 3.94794 21.9149 3.94794H24.5159C24.5406 3.94794 24.565 3.95293 24.5879 3.96262C24.6107 3.97231 24.6314 3.98651 24.6489 4.00442C24.6664 4.02233 24.6802 4.04358 24.6897 4.06698C24.6991 4.09038 24.704 4.11545 24.704 4.14078C24.704 4.1661 24.6991 4.19118 24.6897 4.21457C24.6802 4.23797 24.6664 4.25923 24.6489 4.27713C24.6314 4.29504 24.6107 4.30924 24.5879 4.31893C24.565 4.32863 24.5406 4.33361 24.5159 4.33361H21.9149ZM21.9149 3.1508C21.811 3.1508 21.7262 3.06447 21.7262 2.95796C21.7262 2.85145 21.811 2.76456 21.9149 2.76456H25.1043C25.2082 2.76456 25.2924 2.85145 25.2924 2.95796C25.2924 3.06447 25.2082 3.1508 25.1043 3.1508H21.9149ZM23.17 5.71095L21.9778 6.88255C21.9434 6.92067 21.8941 6.94478 21.84 6.94478C21.7361 6.94478 21.6519 6.85789 21.6519 6.75194V5.71095H21.023C20.8906 5.71095 20.7692 5.65489 20.6823 5.56576C20.5919 5.47311 20.541 5.34755 20.5406 5.21652V1.93043C20.5406 1.79533 20.5959 1.67088 20.6828 1.58175C20.7703 1.49205 20.8912 1.436 21.023 1.436H25.877C26.0088 1.436 26.1302 1.49205 26.2172 1.58175C26.262 1.62745 26.2976 1.68178 26.3219 1.74161C26.3462 1.80145 26.3588 1.86561 26.3588 1.93043V5.21652C26.3588 5.35218 26.3047 5.47551 26.2177 5.5652C26.1297 5.65489 26.0094 5.71095 25.877 5.71095H23.17ZM1.17633 8.78515H6.34867C6.52586 8.78515 6.68828 8.86026 6.80477 8.98079C6.92289 9.10019 6.99563 9.26668 6.99563 9.44831V12.8953C6.99563 13.0764 6.92234 13.2423 6.80531 13.3622C6.68719 13.4833 6.52531 13.5584 6.34867 13.5584H1.17633C0.999141 13.5584 0.837266 13.4833 0.719687 13.3634L0.706563 13.3482C0.597188 13.2294 0.529922 13.0696 0.529922 12.8953V9.44831C0.529922 9.26668 0.602656 9.10075 0.719687 8.98079C0.837812 8.86026 0.999687 8.78515 1.17633 8.78515ZM3.30805 10.6025L4.39523 11.3801C4.41438 11.3918 4.43133 11.4075 4.44445 11.4277C4.49586 11.5034 4.47727 11.6076 4.40344 11.6598L3.31844 12.4283C3.29 12.4524 3.25391 12.4664 3.21508 12.4664C3.12484 12.4664 3.05156 12.3913 3.05156 12.2988V10.7388C3.05266 10.7057 3.06195 10.672 3.08219 10.6435C3.09436 10.6255 3.10986 10.6102 3.12782 10.5984C3.14578 10.5867 3.16582 10.5786 3.18681 10.5748C3.20781 10.571 3.22932 10.5715 3.25013 10.5763C3.27093 10.581 3.29062 10.59 3.30805 10.6025ZM6.56852 9.8693H0.956484V12.8953C0.956484 12.953 0.977813 13.0063 1.01227 13.0455L1.02156 13.0545C1.06148 13.0949 1.11672 13.1206 1.17633 13.1206H6.34867C6.40883 13.1206 6.46461 13.0954 6.50344 13.0551C6.54391 13.0136 6.56852 12.957 6.56852 12.8953V9.8693ZM4.26453 3.79658C4.39578 3.79658 4.50242 3.90533 4.50242 4.03987C4.50242 4.17385 4.39578 4.28316 4.26453 4.28316H1.76914C1.63844 4.28316 1.5318 4.17385 1.5318 4.03987C1.5318 3.90533 1.63844 3.79658 1.76914 3.79658H4.26453ZM4.26453 2.49829C4.39578 2.49829 4.50242 2.6076 4.50242 2.74158C4.50242 2.87612 4.39578 2.98543 4.26453 2.98543H1.20477C1.07352 2.98543 0.966875 2.87612 0.966875 2.74158C0.966875 2.6076 1.07352 2.49829 1.20477 2.49829H4.26453Z" fill="white"/>
</g>
<defs>
<clipPath id="clip0_28_271">
<rect width="28" height="25" fill="white"/>
</clipPath>
</defs>
</svg>
