<svg width="27" height="21" viewBox="0 0 27 21" fill="none" xmlns="http://www.w3.org/2000/svg">
<path fill-rule="evenodd" clip-rule="evenodd" d="M1.39087 0H21.4211C22.1814 0 22.812 0.640353 22.812 1.41458V8.81322C22.3813 8.6548 21.9265 8.54547 21.4585 8.48969V2.65735H1.33594V14.7973H14.7458C14.7634 15.2591 14.8293 15.7054 14.9414 16.136H1.39087C0.630615 16.136 0 15.4956 0 14.7214V1.41458C0 0.640353 0.630615 0 1.39087 0ZM21.063 10.1207C22.3528 10.1207 23.5217 10.654 24.3699 11.5107C25.2158 12.372 25.7388 13.5545 25.7388 14.8687C25.7388 15.8259 25.4575 16.7206 24.9785 17.4658L27.0022 19.7059L25.6069 21.0022L23.6558 18.8224C22.9153 19.3244 22.0232 19.6167 21.0674 19.6167C19.7776 19.6167 18.6086 19.0834 17.7627 18.2266C16.9146 17.3654 16.3938 16.1829 16.3938 14.8709C16.3938 13.5612 16.9189 12.3742 17.7627 11.513C18.6042 10.6495 19.771 10.1207 21.063 10.1207ZM23.5481 12.343C22.9131 11.6982 22.032 11.2965 21.063 11.2965C20.094 11.2965 19.2129 11.6982 18.5779 12.343C17.9429 12.9878 17.5474 13.8825 17.5474 14.8664C17.5474 15.8504 17.9429 16.7451 18.5779 17.3899C19.2129 18.0347 20.094 18.4364 21.063 18.4364C22.032 18.4364 22.9131 18.0347 23.5481 17.3899C24.1831 16.7451 24.5786 15.8504 24.5786 14.8664C24.5786 13.8825 24.1853 12.99 23.5481 12.343ZM12.9749 11.9324H15.3237C15.2095 12.1756 15.1106 12.4278 15.0293 12.6866H12.9771V11.9324H12.9749ZM12.9749 10.0091H16.741C16.4883 10.2389 16.2532 10.4933 16.0422 10.7633H12.9749V10.0091ZM17.0969 6.59764H18.1362C18.1912 6.59764 18.2285 6.63557 18.2285 6.69135V8.76413C18.2285 8.81991 18.1912 8.85784 18.1362 8.85784H17.0969C17.042 8.85784 17.0046 8.81991 17.0046 8.76413V6.69135C17.0024 6.65342 17.0398 6.59764 17.0969 6.59764ZM13.0869 5.33478H14.1262C14.1812 5.33478 14.2185 5.37272 14.2185 5.43073V8.78644C14.2185 8.84222 14.1812 8.88015 14.1262 8.88015H13.0869C13.032 8.88015 12.9946 8.84222 12.9946 8.78644V5.4285C12.9749 5.37272 13.032 5.33478 13.0869 5.33478ZM15.0908 4.61857H16.1301C16.1851 4.61857 16.2224 4.6565 16.2224 4.71228V8.78421C16.2224 8.83999 16.1851 8.87792 16.1301 8.87792H15.0908C15.0359 8.87792 14.9985 8.83999 14.9985 8.78421V4.71228C14.9985 4.6565 15.0359 4.61857 15.0908 4.61857ZM7.29492 9.08542L10.4502 9.1412C10.4502 10.2903 9.89429 11.3456 8.96484 11.9882L7.29492 9.08542ZM6.97852 8.53878L6.94116 4.80599V4.56056L7.18286 4.57841C7.47949 4.59626 7.77612 4.65427 8.05518 4.73013C8.33423 4.80599 8.59351 4.91755 8.85278 5.05142C10.1338 5.72971 11.0237 7.08627 11.0984 8.63249L11.116 8.87792H10.8743L7.21802 8.76413H7.01367L6.97852 8.53878ZM7.38721 5.03357L7.42456 8.31343L10.637 8.40714C10.5073 7.1242 9.72729 6.01307 8.65063 5.4285C8.42871 5.3147 8.18701 5.22099 7.94531 5.14513C7.74097 5.10943 7.57397 5.0715 7.38721 5.03357ZM6.66431 8.898L8.46387 12.0641C7.90796 12.3854 7.29492 12.5549 6.66431 12.5549C4.67798 12.5549 3.06299 10.915 3.06299 8.898C3.06299 6.93678 4.58569 5.31694 6.51489 5.24108L6.66431 8.898Z" fill="white"/>
</svg>
