<svg width="24" height="24" viewBox="0 0 24 24" fill="none" xmlns="http://www.w3.org/2000/svg">
<g clip-path="url(#clip0_28_273)">
<path d="M12 3.98191e-06C13.5757 -0.000765967 15.136 0.308983 16.5919 0.911546C18.0478 1.51411 19.3707 2.39767 20.4849 3.51174C21.5992 4.62581 22.483 5.94854 23.0858 7.40433C23.6886 8.86012 23.9986 10.4204 23.9981 11.9961C23.9983 13.5716 23.6882 15.1317 23.0855 16.5874C22.4827 18.0431 21.5991 19.3657 20.4852 20.4799C19.3712 21.594 18.0487 22.4778 16.5931 23.0808C15.1376 23.6838 13.5775 23.9941 12.002 23.9941C10.4263 23.9954 8.86584 23.6862 7.40975 23.0841C5.95366 22.482 4.6305 21.5989 3.51589 20.4852C2.40128 19.3715 1.51706 18.049 0.91379 16.5934C0.310516 15.1378 5.20868e-06 13.5776 5.73112e-06 12.002C-0.00153549 10.4256 0.307788 8.86435 0.910274 7.40764C1.51276 5.95092 2.39658 4.62731 3.51117 3.51255C4.62575 2.39778 5.94922 1.51374 7.40583 0.91102C8.86245 0.308296 10.4236 -0.00128068 12 3.98191e-06ZM6.47852 8.01954C6.36665 8.14498 6.21068 8.2224 6.04313 8.23567C5.87557 8.24893 5.70936 8.19701 5.57915 8.09072C5.44894 7.98444 5.36478 7.832 5.34421 7.66518C5.32364 7.49836 5.36826 7.33004 5.46876 7.19532C5.5736 7.06404 5.69138 6.94365 5.82032 6.83594C6.44556 6.35764 7.2036 6.08472 7.99024 6.05469C8.85645 5.99051 9.71556 6.25089 10.4004 6.78516C10.5614 6.91711 10.7086 7.065 10.8399 7.22657C10.8944 7.293 10.9352 7.36951 10.9602 7.45174C10.9851 7.53397 10.9936 7.62031 10.9852 7.70582C10.9767 7.79134 10.9515 7.87435 10.911 7.95013C10.8705 8.02591 10.8155 8.09296 10.749 8.14746C10.6826 8.20197 10.6061 8.24285 10.5239 8.26779C10.4416 8.29272 10.3553 8.30121 10.2698 8.29278C10.1843 8.28434 10.1012 8.25915 10.0255 8.21864C9.94969 8.17812 9.88264 8.12307 9.82813 8.05664C9.75147 7.96599 9.66501 7.88411 9.57032 7.8125C9.13467 7.48332 8.59302 7.32618 8.04883 7.3711C7.54097 7.38489 7.04952 7.55393 6.64063 7.85547C6.57849 7.90416 6.52155 7.95914 6.47071 8.01954H6.47852ZM14.4473 8.01954C14.338 8.1537 14.1799 8.23895 14.0077 8.25653C13.8356 8.27411 13.6635 8.22258 13.5293 8.11329C13.3951 8.00399 13.3099 7.84587 13.2923 7.67372C13.2747 7.50156 13.3263 7.32948 13.4356 7.19532C13.5407 7.0667 13.6585 6.94893 13.7871 6.84375C14.4117 6.36322 15.1697 6.08761 15.957 6.05469C16.8239 5.9902 17.6837 6.25059 18.3691 6.78516C18.5297 6.91762 18.6769 7.06546 18.8086 7.22657C18.8631 7.293 18.904 7.36951 18.9289 7.45174C18.9539 7.53397 18.9623 7.62031 18.9539 7.70582C18.9455 7.79134 18.9203 7.87435 18.8798 7.95013C18.8393 8.02591 18.7842 8.09296 18.7178 8.14746C18.6514 8.20197 18.5748 8.24285 18.4926 8.26779C18.4104 8.29272 18.324 8.30121 18.2385 8.29278C18.153 8.28434 18.07 8.25915 17.9942 8.21864C17.9184 8.17812 17.8514 8.12307 17.7969 8.05664C17.7222 7.96687 17.6384 7.88506 17.5469 7.8125C17.1097 7.47838 16.5641 7.31832 16.0156 7.36329C15.507 7.3796 15.0155 7.55137 14.6074 7.85547C14.5463 7.90466 14.4901 7.9596 14.4395 8.01954H14.4473ZM5.17383 14.7129C5.12785 14.6375 5.09766 14.5535 5.08512 14.466C5.07257 14.3785 5.07792 14.2894 5.10084 14.2041C5.12376 14.1188 5.16378 14.039 5.21846 13.9696C5.27314 13.9002 5.34135 13.8426 5.41895 13.8004C5.49655 13.7582 5.58192 13.7321 5.66989 13.7239C5.75786 13.7156 5.84658 13.7253 5.93069 13.7524C6.01479 13.7794 6.09252 13.8233 6.15916 13.8813C6.22581 13.9393 6.27997 14.0103 6.31837 14.0898C7.00916 15.3353 8.09885 16.3122 9.41212 16.8633C10.4074 17.2904 11.4839 17.495 12.5664 17.4629C13.615 17.4404 14.6437 17.1729 15.5703 16.6816C16.6256 16.1171 17.4586 15.2118 17.9336 14.1133C18.0015 13.9532 18.1301 13.8267 18.2913 13.7615C18.4525 13.6963 18.6329 13.6978 18.793 13.7656C18.953 13.8335 19.0796 13.9622 19.1448 14.1233C19.21 14.2845 19.2085 14.4649 19.1406 14.625C18.5527 15.9908 17.5203 17.1176 16.2109 17.8223C15.1041 18.4138 13.8738 18.737 12.6191 18.7656C11.3456 18.8035 10.0791 18.5629 8.90821 18.0606C7.3306 17.3927 6.02352 16.2136 5.19727 14.7129H5.17383ZM12.0098 1.5293C9.23155 1.52826 6.56668 2.63078 4.60127 4.59436C2.63586 6.55794 1.53086 9.22178 1.5293 12C1.53137 14.7764 2.6352 17.4384 4.59839 19.4016C6.56158 21.3648 9.22364 22.4686 12 22.4707C14.7764 22.4681 17.4382 21.3638 19.4011 19.4002C21.3639 17.4367 22.4672 14.7744 22.4688 11.9981C22.4667 9.2222 21.3631 6.56064 19.4002 4.59781C17.4374 2.63499 14.7759 1.53137 12 1.5293H12.0098Z" fill="white"/>
</g>
<defs>
<clipPath id="clip0_28_273">
<rect width="24" height="24" fill="white"/>
</clipPath>
</defs>
</svg>
