<svg width="21" height="27" viewBox="0 0 21 27" fill="none" xmlns="http://www.w3.org/2000/svg">
<g clip-path="url(#clip0_28_275)">
<path fill-rule="evenodd" clip-rule="evenodd" d="M10.5011 15.1852L11.3201 17.1188L13.4768 17.2726L11.8252 18.6239L12.3393 20.6542L10.4989 19.5555L8.65843 20.6542L9.17257 18.6239L7.52096 17.2726L9.67761 17.1188L10.5011 15.1852ZM10.6558 0.790894C10.7286 0.430543 10.922 0.19983 11.1859 0.0811774C11.3997 -0.013305 11.6477 -0.0242914 11.9071 0.0416266C12.1323 0.0987555 12.3689 0.215211 12.5964 0.382203C13.2106 0.832642 13.7862 1.68518 13.859 2.74866C13.8817 3.07605 13.8749 3.42542 13.843 3.79675C13.8226 4.04285 13.7884 4.29993 13.7452 4.56799H16.3568L16.3682 4.57019C16.7936 4.58557 17.2031 4.68665 17.5512 4.86243C17.8515 5.01404 18.104 5.22058 18.2792 5.47986C18.4589 5.74573 18.559 6.06213 18.5431 6.42249C18.5317 6.69055 18.4589 6.98059 18.3065 7.2926C18.3929 7.64197 18.4339 8.0155 18.377 8.34509C18.3292 8.62415 18.2177 8.87244 18.0153 9.05701C18.0266 9.51843 17.963 9.90515 17.8333 10.2413C17.7013 10.5863 17.5034 10.8719 17.2486 11.1246C17.2259 11.3466 17.1895 11.5575 17.1326 11.7552C17.0598 12.0035 16.9552 12.2321 16.8073 12.432C16.3614 13.0385 16.0065 13.0253 15.4423 13.0033C15.365 13.0011 15.2785 12.9967 15.1488 12.9967H10.037C9.57751 12.9967 9.21579 12.933 8.88593 12.7726C8.55834 12.6144 8.28079 12.3727 7.98278 12.0123L7.90543 11.8036V6.04236L8.16477 5.97424C8.8245 5.80286 9.34319 5.25794 9.74586 4.60754C10.1599 3.93738 10.4511 3.15295 10.649 2.52014V0.854615L10.6558 0.790894ZM2.9779 5.44251H6.78616C7.07507 5.44251 7.30939 5.67102 7.30939 5.94788V12.6737C7.30939 12.9528 7.0728 13.1791 6.78616 13.1791H2.9779C2.68898 13.1791 2.45466 12.9506 2.45466 12.6737V5.94788C2.45466 5.66882 2.68898 5.44251 2.9779 5.44251ZM11.4771 0.692017C11.4202 0.716187 11.3747 0.779908 11.3474 0.889771V2.56848L11.3315 2.66516C11.1199 3.34412 10.806 4.20544 10.3419 4.95471C9.9051 5.66003 9.33864 6.26428 8.60384 6.54553V11.6827C8.8063 11.9135 8.99285 12.0717 9.19532 12.1683C9.42054 12.276 9.68443 12.3199 10.0348 12.3199H15.1466C15.2376 12.3199 15.3559 12.3243 15.4673 12.3287C15.8018 12.3419 16.0133 12.3507 16.2385 12.0409C16.3364 11.9069 16.4092 11.7487 16.4615 11.5707C16.5161 11.3817 16.5479 11.173 16.5639 10.9489L16.6708 10.7269C16.896 10.5204 17.0689 10.2897 17.1781 10.004C17.2896 9.71179 17.3396 9.35803 17.3123 8.91638L17.3009 8.71643L17.4761 8.61096C17.5967 8.53845 17.6627 8.40222 17.69 8.23523C17.7355 7.96936 17.6877 7.64417 17.6012 7.34094L17.6285 7.09705C17.7696 6.83557 17.8378 6.60046 17.8469 6.39612C17.856 6.18298 17.7992 5.99841 17.6945 5.84461C17.5853 5.68421 17.4238 5.55237 17.2281 5.45349C16.9756 5.32605 16.6731 5.25354 16.3546 5.24036H12.908L12.9854 4.84046C13.0604 4.45374 13.115 4.08679 13.1446 3.73743C13.1742 3.39465 13.181 3.07825 13.1605 2.79041C13.1014 1.94006 12.651 1.2677 12.1709 0.913941C12.0185 0.80188 11.8661 0.724976 11.7273 0.68982C11.6272 0.66565 11.5385 0.66565 11.4771 0.692017ZM6.73838 21.5309L7.55736 23.4645L9.71401 23.6183L8.0624 24.9696L8.57654 26.9999L6.73611 25.9012L4.89568 26.9999L5.40981 24.9696L3.75821 23.6183L5.91485 23.4645L6.73838 21.5309ZM14.2616 21.5309L15.0806 23.4645L17.2372 23.6183L15.5856 24.9696L16.0998 26.9999L14.2593 25.9012L12.4189 26.9999L12.9331 24.9696L11.2814 23.6183L13.4381 23.4645L14.2616 21.5309ZM18.0221 15.1852L18.8411 17.1188L20.9977 17.2726L19.3461 18.6239L19.8625 20.6542L18.0221 19.5555L16.1817 20.6542L16.6958 18.6239L15.0442 17.2726L17.2008 17.1188L18.0221 15.1852ZM2.9779 15.1852L3.79688 17.1188L5.95353 17.2726L4.30192 18.6239L4.81605 20.6542L2.97563 19.5555L1.13747 20.6542L1.65161 18.6239L0 17.2726L2.15665 17.1188L2.9779 15.1852Z" fill="white"/>
</g>
<defs>
<clipPath id="clip0_28_275">
<rect width="21" height="27" fill="white"/>
</clipPath>
</defs>
</svg>
